<svg width="1514" height="1011" viewBox="0 0 1514 1011" fill="none" xmlns="http://www.w3.org/2000/svg">
<path d="M1514 169.012L1498.62 159.793L1482.22 153.524V143.404L1477.1 136.234L1466.85 137.258L1452.5 109.602L1436.1 110.626L1428.92 97.31V87.0669L1443.27 82.9696L1449.42 78.8723L1445.32 69.6535L1426.87 53.2644L1411.49 60.4346L1407.39 48.1429H1397.14L1394.07 29.7052L1378.69 26.6322L1376.64 15.3647L1359.22 16.3891L1346.92 6.1459L1327.44 7.17021L1315.14 15.3647L1313.09 29.7052L1301.81 33.8024L1304.89 43.0213L1321.29 46.0942L1335.64 59.4103L1329.49 69.6535L1311.04 66.5805L1297.71 75.7994L1291.56 87.0669L1280.29 86.0425L1269.01 94.2371L1246.46 94.2576V76.8237L1233.14 74.7751L1218.79 66.5805L1199.31 74.7751L1185.98 67.6049L1175.73 80.921H1159.33L1151.13 87.0669L1132.68 95.2614L1138.83 112.675L1120.38 117.796L1116.28 121.894H1103.98L1096.8 131.112L1072.2 135.21L1068.1 131.112L1060.93 143.404L1051.7 150.574L1040.43 167.988L1038.38 190.523L1028.13 190.615V172.085L1017.88 162.866L1015.83 142.38L1011.73 132.137L1007.62 148.526L1000.45 160.818L996.349 172.085H990.199L986.099 161.842L972.773 164.915L966.623 152.623L959.448 151.599L952.272 140.331L942.022 123.942L918.445 124.967L911.27 112.675L896.919 139.307L892.819 121.894L890.769 112.675L870.268 134.185L865.143 151.599L857.967 156.72L848.742 162.866L827.216 164.915L822.091 176.182L786.214 201.79L783.139 217.155L775.236 225.524L768.788 227.398L752.387 231.495L745.376 225.524L735.986 232.94L719.586 233.544L728.811 257.103L726.761 268.371L724.711 289.881L716.51 296.027L709.335 303.198L719.586 319.587L735.986 344.17L719.586 349.292L724.711 372.851V390.264L728.811 399.483L712.41 408.702L698.06 415.166V420.994L690.884 427.14L679.609 428.164L671.408 442.505L650.907 432.261L648.857 448.65L636.557 451.037V429.188L615.03 438.407L611.033 424.026H598.63V406.653L585.304 404.677L579.154 390.264L585.304 378.475V367.729L575.053 370.802L554.552 361.584L534.051 373.875V357.486L524.826 330.854L533.026 342.122L543.277 340.073L535.076 318.808L527.901 303.198L535.076 290.906L527.901 276.565L520.726 284.76L512.525 288.857L500.225 287.833L499.2 306.271L485.874 319.587L475.624 301.149L467.423 314.465L472.548 332.903L458.198 335.976L453.698 349.292H435.647L429.496 333.927L451.022 327.781L456.148 325.733V312.416L444.872 300.125L451.022 290.906L448.972 284.76L456.148 276.565V261.201L461.273 255.055L477.674 257.103L486.899 265.298L493.049 258.128L507.4 251.982V236.617L513.55 231.495L516.626 223.301L500.225 212.033L478.699 219.204L475.624 204.863L462.298 194.62L457.173 174.134L445.897 180.28L427.446 187.45L411.045 185.37V200.766L391.569 204.863L385.419 223.301L364.918 228.105V249.933L354.668 247.884L345.442 249.933L332.26 254.03L317.766 244.812L305.465 239.69L284.964 245.836L273.689 240.714L255.238 250.957L226.536 254.03L222.436 238.666L223.338 226.374H219.361V208.96L225.511 200.766L222.436 195.644L227.561 186.426H237.812L239.862 176.182H253.188L251.137 165.939H236.787L222.436 171.061L237.812 156.72V150.574L226.536 153.647V141.356L234.737 137.258L233.712 127.015L228.586 125.991L229.611 114.723L247.037 102.432V91.1641L254.213 85.0182L259.338 68.6292L267.538 55.3131L271.638 40.9726L269.588 20.4863L263.438 16.3891L251.137 25.6079L249.087 37.8997L244.987 40.2351V21.5106L234.737 16.3891L219.361 13.3161L208.085 9.21884L198.86 0L189.634 1.93596L176.309 4.09726L173.234 15.3647L189.634 12.8244V24.5836L178.359 27.6565L161.958 29.7564L155.562 38.924H148.632V48.1429L154.783 52.2401L161.958 66.5805L154.783 64.829L151.708 70.6778L145.065 76.8237H148.632L154.783 83.9939L139.407 87.0669L122.494 98.6928L117.368 107.041V130.6L119.418 152.111L122.494 164.403L119.418 177.719L101.993 190.011L73.8037 191.547L55.3527 209.985L48.1774 233.544L32.8016 218.179L15.3758 257.103L13.3257 281.687V287.833L14.3507 303.198L6.1503 318.562L10.2505 366.705L0 372.851L13.3257 377.973L28.7014 386.126V396.328L42.0271 404.605L47.1523 418.945L56.3778 424.067L52.2776 439.432L71.1078 468.625L63.5531 475.283L68.6784 497.818L52.1648 505.5L34.8517 484.501L28.7014 494.745L35.8768 522.401L54.3277 526.498L50.2275 545.96L64.5782 560.301L62.5281 588.982L75.8538 584.884L87.1293 607.419L72.7786 623.993V646.343L94.3047 657.488V668.878L114.806 672.976V691.413L135.307 708.827V684.243L154.783 685.267L157.858 678.097L169.133 677.073V691.413H197.835L209.11 704.729L223.461 705.754L233.712 720.094L230.636 726.24L238.837 759.018L237.812 770.286L256.263 779.505L272.664 771.31L279.839 794.869L298.29 805.112H312.64L309.565 821.501L332.116 815.356L342.367 797.942L333.142 777.456L336.217 766.188L322.891 745.702L321.866 733.41L332.116 718.046L324.941 700.632L326.991 690.389L330.066 672.976L321.866 666.83L322.891 655.562V646.343L351.592 651.465L346.467 643.271L344.417 629.954L350.567 620.736L354.668 604.346L366.968 586.933L361.843 574.641L362.868 553.131H383.369L384.394 544.936L394.645 545.96L404.895 536.742L420.271 526.498L425.396 534.693L435.647 542.888L441.797 556.204L462.298 558.252L474.599 566.447L454.097 565.422L453.072 582.836L443.847 587.957L420.271 620.736L436.672 625.857L445.897 640.198L423.346 647.368L431.546 668.878L435.647 679.122L453.072 676.049L465.373 685.267L467.423 695.511L454.097 712.924L441.797 718.046L440.772 736.483L431.546 748.775V763.115L444.872 764.14L452.047 769.261L460.248 770.286L463.323 777.456H432.571L421.296 792.821L406.945 793.845L388.494 807.161L369.018 789.748L360.818 799.991L354.668 809.21L369.018 820.477H360.818L355.693 830.72L372.093 831.745L373.118 838.915L364.918 855.304L380.294 863.498L357.743 865.547L374.144 869.644L390.544 874.766L414.121 870.669L416.171 863.498L433.596 860.425L452.047 856.328H464.348L476.649 873.742L504.325 858.377L512.525 895.252L537.127 889.106L561.728 908.568L559.678 914.714L598.63 933.152L595.555 947.492L619.131 952.614L626.306 970.027L649.882 978.222L664.233 980.271L668.333 994.611L700.11 986.416L726.761 999.732L762.125 986.816L763.663 1002.81L783.139 1011L804.665 997.684L814.915 998.708L839.517 990.514L846.692 994.611L871.293 989.489L885.644 981.295L897.944 996.66L914.345 1003.83L927.671 971.052L931.771 980.271L959.448 954.663L973.798 942.371V925.982L988.149 931.103V946.468L986.632 963.881H1024.03L1029.15 957.736L1045.55 953.638L1047.6 944.419L1078.35 936.225L1081.04 918.812H1092.7L1097.83 904.471L1106.03 894.228L1085.53 888.082L1103.98 881.936L1123.46 885.009L1124.48 864.523L1139.86 858.377V848.134L1128.58 844.036L1140.88 833.793L1132.68 825.599L1119.36 821.501L1136.78 809.21L1137.92 782.577H1114.23L1139.94 776.432H1172.66V766.188L1199.31 763.115L1201.66 755.945H1229.04L1253.64 732.386L1265.94 727.264L1272.09 714.973L1293.61 700.632V689.365L1304.89 685.267L1305.91 676.049L1311.04 659.66L1316.17 647.368L1314.12 635.076L1331.54 626.881V604.346L1330.52 584.884L1346.92 565.422L1336.67 549.033L1337.69 534.693L1327.44 527.523L1318.22 517.28L1326.42 513.182L1337.69 507.036L1336.67 482.453L1351.02 479.38L1369.47 493.72L1365.37 480.404L1378.69 474.258L1388.94 478.356L1392.02 466.064L1389.97 455.821L1399.35 451.037L1403.29 444.553H1414.57V434.31L1428.92 431.237L1426.87 420.994L1428.92 404.605L1413.55 385.143L1425.85 374.9L1420.72 359.535L1414.57 358.511L1407.39 371.827H1398.17L1393.04 361.584L1369.47 364.657L1374.59 350.316L1371.52 334.951L1378.69 323.684L1388.94 330.854L1399.19 312.416L1411.49 315.489L1420.72 298.076H1434.05L1436.1 289.881L1445.32 287.833L1468.9 271.444L1454.55 261.201L1460.7 254.03H1471.97L1475.05 249.933L1483.25 248.909L1492.47 250.957L1499.65 256.079L1501.7 245.836L1502.72 222.277L1507.85 209.985L1504.77 200.766L1508.87 186.426L1514 169.012ZM638.607 723.167L631.277 725.728H619.746L604.78 734.588V743.653L591.454 748.775L582.229 748.642V756.97L570.953 762.091L555.578 748.642V732.796L543.277 722.143L555.578 712.258V700.632H547.377L536.102 702.681L527.901 703.705L524.826 691.413L513.55 689.365L516.626 677.073L517.651 664.781L522.776 670.927L543.277 660.684V675.024H560.703L559.678 668.878L563.778 659.66L577.104 661.708L581.204 646.343H594.529L601.705 637.125L615.03 645.319L611.955 653.514L603.16 655.562H587.354L583.766 664.781H565.828L568.903 674L565.828 683.219L573.003 694.486L573.957 689.365L588.379 693.462L598.63 694.486L619.131 692.438L620.156 698.584L631.431 704.729L632.456 715.997H648.857L653.982 720.094L638.607 723.167ZM702.16 498.842L675.508 521.377L662.183 513.182L658.083 532.644L639.632 546.975V563.374L611.955 572.593L587.354 567.123V540.839L608.88 539.815L617.081 521.377L632.456 513.182L649.882 503.175L662.183 487.574H686.784L701.135 478.356L712.41 489.623L702.16 498.842ZM806.715 343.146L788.264 358.511L779.787 378.28L772.888 389.24L775.974 410.71H757L753.412 371.827L740.087 369.778L762.125 367.207L780.064 361.276L783.139 331.878L776.988 323.684L786.214 318.562L785.189 308.319L801.59 301.149L806.715 312.642V343.146ZM950.058 293.979L945.097 285.784L917.42 293.979L933.821 276.565L977.898 273.492L950.058 293.979ZM1077.33 407.678L1069.13 405.629L1068.1 396.41L1060.93 391.289L1061.95 381.046H1064.49L1076.3 384.119L1085.53 400.508L1077.33 407.678ZM1246.46 251.982L1236.21 247.884L1237.75 237.17L1230.06 220.228L1242.36 209.985L1237.24 202.815L1245.44 182.328L1253.64 193.77L1263.89 186.426L1277.21 198.717L1267.99 200.766L1258.76 209.985L1245.44 228.422L1248.51 235.593L1246.46 251.982ZM1340.13 453.772L1323.34 449.675L1310.98 468.625L1305.68 482.965L1315.14 499.866L1307.96 528.547L1302.84 510.109L1294.64 502.939L1283.36 473.234L1259.79 473.388V451.723L1251.59 437.383L1273.11 443.529L1282.34 439.432L1293.61 444.553H1304.89L1308.99 435.334L1313.09 429.188L1326.42 426.115V405.629L1335.64 425.091L1343.84 434.31L1346.92 444.553L1340.13 453.772Z" fill="white"/>
</svg>
