<svg width="54" height="56" viewBox="0 0 54 56" fill="none" xmlns="http://www.w3.org/2000/svg">
<path d="M7.875 43.3377C7.875 34.511 7.875 13.546 7.875 13.546C7.875 9.74906 10.8971 6.67102 14.625 6.67102H39.375V36.4627C39.375 36.4627 20.5117 36.4627 14.625 36.4627C10.9125 36.4627 7.875 39.5383 7.875 43.3377Z" stroke="#E0F6FF" stroke-width="4" stroke-linejoin="round"/>
<path d="M39.375 36.4628C39.375 36.4628 15.9229 36.4628 14.625 36.4628C10.8971 36.4628 7.875 39.5408 7.875 43.3378C7.875 47.1347 10.8971 50.2128 14.625 50.2128C17.1102 50.2128 29.1103 50.2128 46.125 50.2128V8.96277" stroke="#E0F6FF" stroke-width="4" stroke-linecap="round" stroke-linejoin="round"/>
<path d="M15.75 43.3378H38.25" stroke="#E0F6FF" stroke-width="4" stroke-linecap="round" stroke-linejoin="round"/>
</svg>
