<svg width="50" height="51" viewBox="0 0 50 51" fill="none" xmlns="http://www.w3.org/2000/svg">
<g id="&#240;&#159;&#166;&#134; icon &#34;phonebook contacts bold&#34;">
<path id="Vector" d="M4.07232 0.919922H50V51.007H4.07227L4.07232 0.919922ZM45.6446 5.2753H8.42774V46.6517H45.6446V5.2753ZM29.1159 9.23874C33.7583 9.23874 37.5218 13.0022 37.5218 17.6447C37.5218 22.2871 33.7583 26.0506 29.1159 26.0506C24.4734 26.0506 20.7099 22.2871 20.7099 17.6447C20.7148 13.0042 24.4754 9.24368 29.1154 9.23874H29.1159ZM29.1159 21.6952C31.3529 21.6952 33.1664 19.8817 33.1664 17.6447C33.1664 15.4076 31.3529 13.5942 29.1159 13.5942C26.8788 13.5942 25.0654 15.4076 25.0654 17.6447C25.0678 19.8807 26.8799 21.6927 29.1157 21.6952H29.1159H29.1159ZM37.3715 34.7309L36.9098 32.5271C36.1512 28.8571 32.9456 26.1377 29.105 26.1377C25.2643 26.1377 22.0589 28.8571 21.309 32.4755L21.3001 32.5271V32.5489L20.8427 34.7266L16.5809 33.8315L17.0361 31.6538C18.2104 25.9768 23.1692 21.7703 29.1103 21.7703C35.0515 21.7703 40.0104 25.9769 41.1709 31.574L41.1847 31.6537L41.6398 33.8185L37.3715 34.7309ZM12.4782 13.5942H0V9.23879H12.4782V13.5942ZM12.4782 23.9818H0V19.6264H12.4782V23.9818ZM12.4782 34.3695H0V30.014H12.4782V34.3695ZM12.4782 44.7788H0V40.4235H12.4782V44.7788Z" fill="#E0F6FF"/>
</g>
</svg>
