<svg width="52" height="53" viewBox="0 0 52 53" fill="none" xmlns="http://www.w3.org/2000/svg">
<g id="&#240;&#159;&#166;&#134; icon &#34;menu square thin&#34;">
<path id="Vector" d="M20.5227 1.19824H20.0227V1.69824V12.6528V13.1528H20.5227H31.4773H31.9773V12.6528V1.69824V1.19824H31.4773H20.5227ZM1 1.19824H0.5V1.69824V12.6528V13.1528H1H11.9546H12.4546V12.6528V1.69824V1.19824H11.9546H1ZM40.0454 1.19824H39.5454V1.69824V12.6528V13.1528H40.0454H51H51.5V12.6528V1.69824V1.19824H51H40.0454ZM20.5227 20.7209H20.0227V21.2209V32.1755V32.6755H20.5227H31.4773H31.9773V32.1755V21.2209V20.7209H31.4773H20.5227ZM1 20.7209H0.5V21.2209V32.1755V32.6755H1H11.9546H12.4546V32.1755V21.2209V20.7209H11.9546H1ZM40.0455 20.7209H39.5455L39.5455 21.2209L39.5454 32.1755L39.5454 32.6755H40.0454H51H51.5V32.1755V21.2209V20.7209H51H40.0455ZM20.5228 40.2437H20.0228V40.7437V51.6983V52.1983H20.5228H31.4773H31.9773V51.6983V40.7437V40.2437H31.4773H20.5228ZM1 40.2437H0.5V40.7437V51.6982V52.1982H1H11.9546H12.4546V51.6982V40.7437V40.2437H11.9546H1ZM40.0455 40.2436H39.5455L39.5455 40.7436L39.5454 51.6982L39.5454 52.1982H40.0454H51H51.5V51.6982V40.7436V40.2436H51H40.0455ZM23.2954 9.88003V4.47095H28.7046V9.88003H23.2954ZM3.77275 9.88003V4.47095H9.18184V9.88003H3.77275ZM42.8182 9.88003V4.47095H48.2273V9.88003H42.8182ZM23.2954 29.4028V23.9937H28.7045L28.7046 29.4028H23.2954ZM3.77275 29.4028V23.9937H9.18184V29.4028H3.77275ZM42.8182 29.4028V23.9937H48.2273L48.2273 29.4028H42.8182ZM23.2954 48.9255V43.5165H28.7046V48.9255H23.2954ZM3.77275 48.9254V43.5164H9.18184V48.9254H3.77275ZM42.8182 48.9253V43.5163H48.2273L48.2273 48.9253H42.8182Z" fill="#E0F6FF" stroke="#E0F6FF"/>
</g>
</svg>
