<svg width="50" height="51" viewBox="0 0 50 51" fill="none" xmlns="http://www.w3.org/2000/svg">
<g id="&#240;&#159;&#166;&#134; icon &#34;write book&#34;">
<path id="Vector" d="M0 38.8751H16.5111C22.1173 38.8815 26.6604 43.4245 26.6667 49.0301V50.6973H0V38.8751ZM23.1267 47.364C22.3524 44.3806 19.6855 42.2126 16.5116 42.2084H3.33335V47.364H23.1267ZM33.4889 38.8751H50V50.6974H23.3333V49.0307C23.3397 43.4245 27.8827 38.8815 33.4883 38.8751H33.4889ZM46.6666 42.2085H33.4889C30.3145 42.2127 27.6476 44.3807 26.8838 47.3166L26.8733 47.3641H46.6666V42.2085ZM0 11.2973H16.5111C22.1173 11.3037 26.6604 15.8466 26.6667 21.4523V50.6973H0V11.2973ZM23.3333 47.364V21.4529C23.3295 17.6866 20.2774 14.6345 16.5115 14.6306H3.33335V47.364H23.3333ZM50 50.6974H23.3333V21.4529C23.3333 15.8442 27.8801 11.2974 33.4889 11.2974V14.6308C29.7211 14.6308 26.6667 17.6852 26.6667 21.453V47.3642H46.6666V14.6308H41.9778V11.2973H50V50.6974ZM37.7334 34.5218L31.8223 28.6107V6.60845V6.59927C31.8223 4.9689 32.481 3.49248 33.5469 2.42153L33.5466 2.42178C34.6065 1.35649 36.0736 0.697266 37.6947 0.697266H37.7422C41.002 0.704883 43.6419 3.34795 43.6445 6.6082V28.6084L37.7334 34.5218ZM35.1556 27.2307L37.7333 29.8085L40.3111 27.2307V6.6085C40.3098 5.18535 39.1564 4.03198 37.7334 4.03071H37.7045C37.0009 4.03071 36.3642 4.31704 35.9045 4.77949L35.9043 4.77964C35.4416 5.24448 35.1555 5.8856 35.1555 6.59351V6.59995V6.59961L35.1556 27.2307Z" fill="#E0F6FF"/>
</g>
</svg>
