<svg width="56" height="67" viewBox="0 0 56 67" fill="none" xmlns="http://www.w3.org/2000/svg">
<path d="M15.0584 19.7483L15.0585 19.7483C14.3935 15.475 15.0251 11.3499 17.1012 7.98378L15.0584 19.7483ZM15.0584 19.7483L15.0592 19.753M15.0584 19.7483L15.0592 19.753M15.0592 19.753C15.8628 24.3466 17.7854 28.6514 20.6453 32.2579C22.9768 35.275 25.7774 37.8678 28.9321 39.9292C29.117 40.0542 29.3355 40.1179 29.5579 40.1104C29.7772 40.1031 29.9881 40.0271 30.1631 39.8938C33.3963 37.8102 36.1929 35.0747 38.3875 31.8499C40.5842 28.6222 42.1331 24.97 42.9428 21.1101L42.9433 21.1075C43.9101 16.2412 43.4423 11.4139 41.2261 7.6442C40.5639 6.51177 39.75 5.48226 38.8086 4.58657C36.3555 2.17653 33.1191 0.80664 29.7376 0.750035L29.7376 0.749923M15.0592 19.753L29.7376 0.749923M29.7376 0.749923L29.7301 0.750022M29.7376 0.749923L29.7301 0.750022M29.7301 0.750022C26.2459 0.796227 22.8847 2.08616 20.2118 4.40074M29.7301 0.750022L20.2118 4.40074M20.5823 39.9746V40.0808V54.6349L35.4534 61.2879V42.7204V42.5995L35.5482 42.5244C36.6973 41.6144 37.7876 40.6269 38.812 39.5684L39.2417 39.1244V39.7422V61.1128L51.4872 54.7142V25.6121L46.9305 27.4324L46.4111 27.6399L46.603 27.1145C47.0913 25.7768 47.4936 24.407 47.8073 23.014L47.8361 22.8857L47.9582 22.8368L52.6995 20.9378L52.7039 20.936L52.7039 20.9361C53.172 20.7588 53.6888 20.7795 54.142 20.9935C54.5944 21.207 54.9452 21.595 55.1218 22.0711C55.2064 22.2948 55.2498 22.5327 55.25 22.7725V22.7727L55.25 55.9385L55.25 55.9395M20.5823 39.9746L54.7234 56.8943C54.9051 56.6117 55.0013 56.2792 55 55.9395H55.25M20.5823 39.9746L20.5059 39.9008C19.3455 38.7819 18.2526 37.5899 17.2331 36.3317L16.7889 35.7833V36.489V54.7248L4.54343 61.1234M20.5823 39.9746L4.54343 61.1234M55.25 55.9395C55.2513 56.3266 55.1416 56.706 54.9338 57.0295C54.7275 57.3505 54.4335 57.6025 54.0877 57.7524M55.25 55.9395L54.0877 57.7524M54.0877 57.7524L38.1904 66.0368L54.0877 57.7524ZM4.54343 61.1234V30.4957L11.7276 27.6228L11.9606 27.5296L11.8666 27.297C11.4465 26.2567 11.0817 25.1933 10.7741 24.1114L10.6982 23.8446L10.4407 23.9477L2.09938 27.287C1.70886 27.4085 1.36786 27.6563 1.12556 27.9923C0.881199 28.3311 0.749908 28.7417 0.75 29.1627C0.75 29.1627 0.75 29.1628 0.75 29.1628L0.749994 64.2973L0.750007 64.2991C0.752187 64.6025 0.821685 64.9017 0.953498 65.1734L0.953667 65.1738C1.06502 65.4025 1.21902 65.6068 1.4073 65.7746C1.5956 65.9426 1.81448 66.0707 2.05158 66.1514C2.28871 66.2321 2.53909 66.2636 2.78828 66.2439C3.03725 66.2241 3.2797 66.1538 3.50174 66.0371L4.54343 61.1234ZM20.2118 4.40074C18.9896 5.40732 17.9384 6.6183 17.1014 7.98349L20.2118 4.40074ZM3.50233 66.0368L18.7499 58.0687L36.4761 66.0405C36.7405 66.1781 37.0328 66.25 37.3297 66.25C37.6289 66.25 37.9235 66.1769 38.1895 66.0372L3.50233 66.0368ZM29.1165 8.76676C30.4484 8.76676 31.7511 9.1765 32.8601 9.94533C33.9692 10.7142 34.835 11.8081 35.3466 13.0897C35.8582 14.3713 35.9922 15.782 35.7313 17.1431C35.4703 18.5042 34.8265 19.7532 33.8825 20.7327C32.9386 21.7121 31.7371 22.3779 30.4306 22.6476C29.1241 22.9172 27.7698 22.7789 26.5385 22.2497C25.307 21.7205 24.253 20.8236 23.5108 19.671C22.7685 18.5184 22.3718 17.1623 22.3718 15.7743C22.3718 13.9129 23.0845 12.1295 24.3505 10.8159C25.6161 9.50272 27.3307 8.76676 29.1165 8.76676Z" fill="#E0F6FF" stroke="#E0F6FF" stroke-width="0.5"/>
</svg>
