<svg width="28" height="28" viewBox="0 0 28 28" fill="none" xmlns="http://www.w3.org/2000/svg">
<path d="M0.769141 0.769141C1.01262 0.525316 1.30178 0.331884 1.62007 0.199908C1.93837 0.0679315 2.27957 0 2.62414 0C2.96871 0 3.30991 0.0679315 3.62821 0.199908C3.94651 0.331884 4.23566 0.525316 4.47914 0.769141L13.9991 10.2856L23.5191 0.769141C23.7627 0.525539 24.0519 0.332303 24.3702 0.200466C24.6885 0.0686295 25.0296 0.00077439 25.3741 0.000774384C25.7186 0.000774377 26.0598 0.0686295 26.3781 0.200466C26.6963 0.332303 26.9855 0.525539 27.2291 0.769141C27.4727 1.01274 27.666 1.30194 27.7978 1.62022C27.9297 1.9385 27.9975 2.27964 27.9975 2.62414C27.9975 2.96865 27.9297 3.30978 27.7978 3.62806C27.666 3.94634 27.4727 4.23554 27.2291 4.47914L17.7126 13.9991L27.2291 23.5191C27.7211 24.0111 27.9975 24.6784 27.9975 25.3741C27.9975 26.0699 27.7211 26.7372 27.2291 27.2291C26.7372 27.7211 26.0699 27.9975 25.3741 27.9975C24.6784 27.9975 24.0111 27.7211 23.5191 27.2291L13.9991 17.7126L4.47914 27.2291C3.98716 27.7211 3.3199 27.9975 2.62414 27.9975C1.92838 27.9975 1.26112 27.7211 0.769141 27.2291C0.277164 26.7372 0.000774384 26.0699 0.000774384 25.3741C0.000774384 24.6784 0.277164 24.0111 0.769141 23.5191L10.2856 13.9991L0.769141 4.47914C0.525316 4.23566 0.331884 3.94651 0.199908 3.62821C0.0679315 3.30991 0 2.96871 0 2.62414C0 2.27957 0.0679315 1.93837 0.199908 1.62007C0.331884 1.30178 0.525316 1.01262 0.769141 0.769141Z" fill="#E1F6FF"/>
</svg>
